<?xml version="1.0" standalone="no"?>
<!DOCTYPE svg PUBLIC "-//W3C//DTD SVG 20010904//EN"
 "http://www.w3.org/TR/2001/REC-SVG-20010904/DTD/svg10.dtd">
<svg version="1.0" xmlns="http://www.w3.org/2000/svg"
 width="137.000000pt" height="137.000000pt" viewBox="0 0 137.000000 137.000000"
 preserveAspectRatio="xMidYMid meet">
<metadata>
Created by potrace 1.14, written by Peter Selinger 2001-2017
</metadata>
<g transform="translate(0.000000,137.000000) scale(0.100000,-0.100000)"
fill="#000000" stroke="none">
<path d="M570 1166 c-48 -13 -134 -14 -162 -1 -13 5 -18 3 -18 -8 0 -16 41
-47 63 -47 8 0 -11 -25 -41 -55 -31 -30 -52 -55 -49 -55 4 0 -4 -17 -18 -39
-15 -21 -28 -52 -30 -67 -2 -16 -4 -31 -5 -34 -2 -3 -2 -8 -1 -12 3 -25 -67
-187 -89 -205 -8 -7 -11 -13 -6 -13 6 0 -9 -14 -32 -31 -23 -17 -40 -35 -36
-40 12 -20 69 -41 104 -37 31 3 37 0 37 -17 0 -11 1 -31 2 -45 2 -30 31 -71
38 -53 3 7 16 -2 35 -23 28 -32 68 -51 94 -46 7 1 9 -8 6 -23 -2 -14 1 -31 7
-38 13 -16 -23 -70 -64 -97 -38 -25 -58 -50 -83 -102 -39 -85 -76 -78 424 -78
l445 0 -4 29 c-15 95 -43 141 -104 172 -70 36 -73 39 -57 71 8 16 12 39 8 52
-5 20 -14 26 -50 32 -37 5 -41 8 -29 20 7 8 16 14 20 14 9 0 35 27 35 37 0 4
9 19 20 33 11 14 20 33 20 43 0 10 4 16 9 13 4 -3 9 -29 10 -57 0 -29 3 -54 5
-56 13 -13 30 51 30 110 -1 67 -1 67 27 67 29 0 79 19 79 30 0 3 -16 21 -35
40 -40 38 -74 105 -87 170 -5 25 -10 50 -11 55 -2 6 -6 16 -10 23 -5 6 -6 12
-2 12 3 0 0 10 -7 23 -7 12 -12 25 -13 29 0 3 -3 10 -7 14 -5 4 -8 13 -8 21 0
12 -6 21 -64 82 -30 32 -108 77 -151 87 -54 12 -199 12 -245 0z m-53 -741 c43
-21 43 -54 -1 -68 -26 -9 -32 -7 -45 13 -15 22 -20 43 -22 90 -2 44 1 46 17
13 9 -17 31 -39 51 -48z"/>
</g>
</svg>
